<?xml version="1.0" encoding="UTF-8"?>
<svg version="1.1" xmlns="http://www.w3.org/2000/svg" width="420" height="420">
<path d="M0 0 C138.6 0 277.2 0 420 0 C420 138.6 420 277.2 420 420 C281.4 420 142.8 420 0 420 C0 281.4 0 142.8 0 0 Z " fill="#11181C" transform="translate(0,0)"/>
<path d="M0 0 C138.6 0 277.2 0 420 0 C420 138.6 420 277.2 420 420 C281.4 420 142.8 420 0 420 C0 281.4 0 142.8 0 0 Z M35 35 C35 58.43 35 81.86 35 106 C58.1 106 81.2 106 105 106 C105 128.77 105 151.54 105 175 C81.9 175 58.8 175 35 175 C35 198.43 35 221.86 35 246 C58.1 246 81.2 246 105 246 C105 268.77 105 291.54 105 315 C81.9 315 58.8 315 35 315 C35 338.43 35 361.86 35 386 C81.53 386 128.06 386 176 386 C176 362.9 176 339.8 176 316 C198.77 316 221.54 316 245 316 C245 339.1 245 362.2 245 386 C291.53 386 338.06 386 386 386 C386 362.57 386 339.14 386 315 C362.9 315 339.8 315 316 315 C316 292.23 316 269.46 316 246 C339.1 246 362.2 246 386 246 C386 222.57 386 199.14 386 175 C362.9 175 339.8 175 316 175 C316 152.23 316 129.46 316 106 C339.1 106 362.2 106 386 106 C386 82.57 386 59.14 386 35 C362.57 35 339.14 35 315 35 C315 58.1 315 81.2 315 105 C292.23 105 269.46 105 246 105 C246 81.9 246 58.8 246 35 C222.57 35 199.14 35 175 35 C175 58.1 175 81.2 175 105 C152.23 105 129.46 105 106 105 C106 81.9 106 58.8 106 35 C82.57 35 59.14 35 35 35 Z " fill="#FFFFFF" transform="translate(0,0)"/>
<path d="M0 0 C22.77 0 45.54 0 69 0 C69 22.77 69 45.54 69 69 C46.23 69 23.46 69 0 69 C0 46.23 0 23.46 0 0 Z " fill="#FFFFFF" transform="translate(176,106)"/>
</svg>
